PathFileType	4	(X/Y/Z)	/Users/mathieubourgeois/Desktop/Analyse/Traitement/Sujet_08/Data/Transformed_Sujet_08_velo_80.trc
DataRate	CameraRate	NumFrames	NumMarkers	Units	OrigDataRate	OrigDataStartFrame	OrigNumFrames
120.000000	120.000000	4	35	mm	120.000000	1173	1878
Frame#	Time	RFHD			RANE			STRN			LANI			LKNE			T10			RHUM			RWRB			C7			LFWT			LTOE			RTOE			LWRA			LBWT			RBWT			RFWT			LKNI			RKNE			LANE			LHEE			LHUM			LRAD			RRAD			RWRA			LWRB			LFHD			LBHD			RBHD			RSHO			LSHO			CLAV			LCAR			RCAR			RANI			RKNI			
		X1	Y1	Z1	X2	Y2	Z2	X3	Y3	Z3	X4	Y4	Z4	X5	Y5	Z5	X6	Y6	Z6	X7	Y7	Z7	X8	Y8	Z8	X9	Y9	Z9	X10	Y10	Z10	X11	Y11	Z11	X12	Y12	Z12	X13	Y13	Z13	X14	Y14	Z14	X15	Y15	Z15	X16	Y16	Z16	X17	Y17	Z17	X18	Y18	Z18	X19	Y19	Z19	X20	Y20	Z20	X21	Y21	Z21	X22	Y22	Z22	X23	Y23	Z23	X24	Y24	Z24	X25	Y25	Z25	X26	Y26	Z26	X27	Y27	Z27	X28	Y28	Z28	X29	Y29	Z29	X30	Y30	Z30	X31	Y31	Z31	X32	Y32	Z32	X33	Y33	Z33	X34	Y34	Z34	X35	Y35	Z35	

1174	9.775	234.7451782226562	1505.3310546875	94.32210540771479	-117.1267852783203	577.6988525390625	168.4886779785156	-45.72262954711914	1156.553588867188	28.95870780944816	-236.6294555664062	311.109130859375	-76.38205718994145	-90.76819610595702	695.3258666992188	-150.0067443847657	-191.9695129394531	1352.5048828125	23.94411468505849	145.7310638427734	1074.06494140625	210.5459289550781	337.5389099121093	908.4074096679688	255.3362579345703	25.13999938964843	1425.26025390625	31.72660446166984	-252.8075561523438	1094.52294921875	-104.6300125122071	-116.0037612915039	170.3840789794922	-124.1720123291016	54.33200836181639	495.223388671875	143.8314056396484	363.6762084960938	938.0957641601562	-173.6708221435547	-393.3256225585938	1154.322265625	-40.28505325317395	-394.8280639648438	1157.64111328125	90.62657928466786	-247.4888916015625	1098.488159179688	125.7719726562499	-116.0506744384766	631.3094482421875	-45.3290405273438	33.90673828124998	935.6809692382812	189.9524383544921	-279.6352844238281	310.3545532226562	-155.4058685302735	-324.8398742675781	302.664794921875	-107.4113082885743	136.4414215087891	1075.537109375	-176.4588928222657	186.9286193847657	1106.628540039062	-230.3378295898438	184.8074951171875	1095.945068359375	258.7962036132812	361.6078796386719	929.0494384765625	187.8498382568359	329.5653076171875	897.4864501953125	-227.2008819580078	240.5405731201172	1516.47314453125	-32.52996826171881	84.66506958007812	1526.261108398438	-48.72644424438485	69.56011962890624	1531.234375	87.46643066406241	70.61927795410155	1360.97705078125	153.0050201416015	64.79949188232423	1363.52783203125	-110.0028533935548	68.13442230224609	1292.594604492188	26.31254386901848	427.5500793457032	917.0712280273438	-255.17138671875	439.1216735839843	909.5636596679688	276.1231994628906	-87.4950408935547	585.1719970703125	92.84704589843744	60.86571502685546	879.2166748046875	86.28823089599605	
1175	9.783333333333333	234.4048156738281	1504.304077148438	94.39746093749994	-108.5952758789063	568.1607055664062	168.9791259765625	-46.50464630126954	1156.073120117188	29.02836990356437	-243.5667572021484	318.5925598144531	-75.51589202880864	-87.37812042236327	698.4017944335938	-151.2081604003907	-192.5406951904297	1352.356079101562	23.80180549621571	145.4263458251953	1073.985595703125	210.7009582519531	337.3652038574218	908.4869995117188	255.4618988037109	24.70697212219238	1424.636962890625	31.51425361633292	-253.7276153564453	1094.442016601562	-104.634750366211	-126.8704071044922	175.0622711181641	-124.1993026733399	64.1276168823242	490.0953979492188	143.8944549560547	363.4868774414062	938.1449584960938	-173.57666015625	-394.3150329589844	1154.065185546875	-40.31130599975598	-395.6550903320312	1157.533447265625	90.56407928466786	-248.3100891113282	1098.510375976562	125.8329620361327	-113.4955520629883	634.9578857421875	-45.94139862060552	32.7753105163574	931.4278564453125	189.2522277832031	-286.9329223632812	319.1178894042969	-154.2464294433594	-332.1492919921875	312.4056396484375	-105.915138244629	135.9032287597657	1075.141479492188	-176.611083984375	186.3657836914063	1106.295288085938	-230.4528350830078	184.6337280273437	1096.001953125	258.7846069335937	361.4031066894531	929.1187133789062	187.9618988037109	329.4584655761719	897.4807739257812	-227.1106414794922	240.3866271972656	1515.565551757812	-32.43441009521491	84.52579498291016	1525.598999023438	-48.85357284545907	69.21087646484374	1530.457397460938	87.31343078613273	70.0962448120117	1360.539794921875	152.6238861083984	64.07315063476564	1363.029052734375	-110.0755081176759	67.59248352050781	1291.848022460938	26.0976543426513	427.4359436035157	917.1491088867188	-255.0680694580078	438.9732055664062	909.64794921875	276.2347412109375	-79.49047851562501	576.3381958007812	94.0664901733398	60.89663696289062	874.5947265625	85.68872833251949	
1176	9.791666666666666	234.0365905761719	1503.25341796875	94.3431777954101	-100.3447875976563	557.8421020507812	169.4791870117187	-47.36627578735352	1155.5712890625	29.06643104553215	-250.0469207763672	326.8011169433594	-74.64820098876957	-83.80379486083983	701.7630615234375	-152.3560791015626	-193.0751800537109	1352.19775390625	23.58304977416982	145.0643157958984	1073.868530273438	210.7913360595703	337.1745300292968	908.5423583984375	255.5688781738281	24.29053688049316	1424.01318359375	31.208791732788	-254.6527252197266	1094.355834960938	-104.6293563842774	-137.3978881835937	180.4898071289062	-124.2516250610352	73.83615112304686	483.6511840820312	143.5063171386718	363.3211669921875	938.1924438476562	-173.4542083740234	-395.3112182617188	1153.773803710938	-40.24120712280286	-396.4235534667969	1157.26416015625	90.59140014648426	-249.0270690917969	1098.405029296875	125.9220275878905	-110.1737899780273	638.9327392578125	-46.76345062255865	31.52599334716794	926.1160888671875	188.6210174560546	-293.8612060546875	328.5148315429688	-153.1576385498047	-338.9912414550781	322.76904296875	-104.5864562988282	135.3990783691407	1074.685913085938	-176.6958160400391	185.886703491211	1105.921875	-230.5022735595703	184.3519287109375	1096.032470703125	258.7519836425781	361.1724853515625	929.1830444335938	188.0658416748047	329.3654479980469	897.5037841796875	-227.0816192626953	240.2599487304688	1514.608642578125	-32.47325515747077	84.36962890625	1524.892822265625	-49.09204101562509	68.91847229003905	1529.697143554688	87.09671020507804	68.61050415039061	1360.064208984375	152.4017791748046	63.3313674926758	1362.5126953125	-110.184669494629	66.99156951904297	1291.145385742188	25.94375991821282	427.3085327148438	917.251708984375	-254.9789123535156	438.7779541015624	909.7315673828125	276.3359985351562	-71.82143402099611	566.7367553710938	95.3079452514648	60.71762466430663	868.8919067382812	85.12121582031246	
1177	9.800000000000001	233.7105407714844	1502.26513671875	94.15402984619135	-92.43507385253908	546.822265625	169.9807739257812	-48.37298583984376	1155.107055664062	29.10352325439445	-256.2677917480469	335.5970153808594	-73.92342376708989	-79.85328674316405	705.4639892578125	-153.5280761718751	-193.6865386962891	1352.029418945312	23.38113021850575	144.6288757324218	1073.709106445312	210.8984832763672	336.9833068847656	908.5836181640625	255.6329345703125	23.84034347534179	1423.460083007812	30.79152679443351	-255.5927276611328	1094.288818359375	-104.5887832641603	-147.581314086914	186.7275848388672	-124.2781677246094	82.84069061279295	476.5366821289062	143.3251800537109	363.1594543457031	938.2332153320312	-173.3386688232422	-396.2704772949219	1153.480346679688	-40.05332565307629	-397.1054077148438	1156.790283203125	90.78583526611317	-249.5452270507813	1098.122314453125	126.0603790283202	-106.4367904663086	643.1876831054688	-47.7105331420899	30.17797851562498	919.7871704101562	188.0621032714843	-300.2252197265625	338.5326843261719	-152.2176513671876	-345.4017028808594	333.871337890625	-103.456657409668	134.9756774902344	1074.273559570312	-176.7453765869141	185.3292388916016	1105.538818359375	-230.5421905517578	183.9478149414062	1095.98388671875	258.7263793945312	360.9068908691406	929.2496948242188	188.1273040771484	329.0794982910156	896.2904052734375	-225.884033203125	240.03466796875	1513.624267578125	-32.6574440002442	84.18895721435547	1524.268432617188	-49.38735961914071	68.69167327880858	1528.995727539062	86.79322052001945	68.05992126464842	1359.661499023438	151.9910888671874	62.63404846191408	1362.069091796875	-110.3366699218751	66.3687744140625	1290.416625976562	25.74550628662102	427.1525573730469	917.3615112304688	-254.9397430419922	438.5507812499999	909.8317260742188	276.4205017089844	-64.52213287353517	556.4285888671875	96.51303863525386	60.35799026489257	862.160400390625	84.59072875976558	
